<svg width="16" height="16" viewBox="0 0 16 16" fill="none" xmlns="http://www.w3.org/2000/svg">
<path fill-rule="evenodd" clip-rule="evenodd" d="M13.9873 7.58293C13.8929 5.64696 13.5467 3.80453 12.7417 1.97732C12.5587 1.56098 12.1276 1.29734 11.6964 1.33693C9.80373 1.51051 8.12782 2.11262 6.50096 2.99446C4.84524 3.89241 2.5758 5.84665 2.16527 6.6032C1.91879 7.05695 1.9699 7.41108 2.17475 7.86223C2.63845 8.88111 3.96689 10.4277 6.54382 12.0069C9.03708 13.5348 10.8404 14.0625 12.177 13.9938C12.6321 13.9699 12.9651 13.8272 13.2116 13.3734C13.6234 12.6169 14.0825 9.5537 13.9873 7.58293ZM11.3165 7.82689L8.81871 9.96516L6.32092 7.82689V6.38035L8.17572 7.83646C8.17077 7.59066 8.16748 7.34486 8.16748 7.10123C8.16748 6.16718 8.20787 5.24531 8.28412 4.43264L8.28659 4.40654L9.35083 4.40697L9.35372 4.43264C9.42997 5.24488 9.46995 6.16718 9.46995 7.09906C9.46995 7.34399 9.46748 7.59023 9.46171 7.83646L11.3165 6.38035V7.82689Z" fill="#D7192D"/>
</svg>
