<svg width="16" height="16" viewBox="0 0 16 16" fill="none" xmlns="http://www.w3.org/2000/svg">
<g clip-path="url(#clip0_13090_136882)">
<path fill-rule="evenodd" clip-rule="evenodd" d="M13.8846 4.50784C13.9573 5.55333 13.9965 6.60642 13.9965 7.66672C13.9965 9.72313 13.8565 11.7514 13.5858 13.7482C11.7456 13.9127 9.8823 13.9997 8.00067 13.9997C6.12048 13.9997 4.25865 13.9127 2.41733 13.7482C2.14699 11.7514 2.00659 9.72313 2.00659 7.66672C2.00659 6.60642 2.04619 5.55333 2.11855 4.50784C2.42525 4.4501 2.66248 4.17885 2.66248 3.83884C2.66248 3.54213 2.48141 3.29216 2.23014 3.19604C2.28378 2.65658 2.34462 2.11864 2.41733 1.58298C4.25865 1.41963 6.12048 1.33301 8.00067 1.33301C9.8823 1.33301 11.7456 1.41963 13.5858 1.58298C13.6585 2.11864 13.7197 2.65658 13.7734 3.19604C13.5228 3.29216 13.341 3.54099 13.341 3.83884C13.341 4.18037 13.5775 4.45086 13.8846 4.50784ZM7.35558 7.1208L6.30551 4.5314H7.06111L7.11223 4.58876C7.71052 5.25359 8.29406 5.9583 8.84879 6.6862C8.9313 6.79364 9.013 6.9028 9.09506 7.01243L9.13354 7.06382C9.92622 7.08737 11.0026 7.16791 11.2906 7.42814L11.3507 7.48399V7.83464L11.3086 7.88554C11.1012 8.13476 10.4752 8.24835 9.13102 8.27152C9.05343 8.37693 8.97511 8.48053 8.89767 8.58295L8.84879 8.64763C8.29406 9.37476 7.71052 10.0802 7.11223 10.7443L7.05931 10.7998H6.30551L7.35558 8.21188C7.03124 8.18073 6.70041 8.14426 6.37967 8.10551L6.29435 8.22442C6.12912 8.45388 5.94481 8.68866 5.7497 8.92305L5.69822 8.98498L4.91382 8.98574L5.27488 7.68382V7.64887L4.91382 6.34694H5.69822L5.7497 6.40925C5.94841 6.64707 6.12696 6.87615 6.29435 7.10865L6.37823 7.22528C6.69681 7.18805 7.028 7.14968 7.35558 7.1208Z" fill="#D7192D"/>
</g>
<defs>
<clipPath id="clip0_13090_136882">
<rect width="12" height="12.6667" fill="white" transform="translate(2 1.33301)"/>
</clipPath>
</defs>
</svg>
