<svg width="16" height="16" viewBox="0 0 16 16" fill="none" xmlns="http://www.w3.org/2000/svg">
<path fill-rule="evenodd" clip-rule="evenodd" d="M10.3402 4.51368C10.3402 6.44282 9.79137 7.69238 8.00045 7.69238C6.2054 7.69238 5.6607 6.44282 5.6607 4.51368C5.6607 2.58015 6.20953 1.33497 8.00045 1.33497C9.79137 1.33059 10.3402 2.58015 10.3402 4.51368ZM6.94702 5.96491V5.60977C7.62378 5.75446 8.32529 5.75446 9.05156 5.60977V5.96052C8.86587 6.31566 8.53162 6.51734 7.99929 6.51734C7.46697 6.51734 7.13684 6.31566 6.94702 5.96491Z" fill="#D7192D"/>
<path d="M12.9725 9.57772C13.3728 11.007 13.7153 12.5723 14 14.0805H2C2.28061 12.5723 2.62311 11.0027 3.02751 9.57772C3.8033 9.12174 6.18019 8.72714 8 8.72714C9.78267 8.72714 12.1843 9.11297 12.9519 9.55141L12.9725 9.57772Z" fill="#D7192D"/>
</svg>
